<?xml version="1.0" encoding="utf-8"?>
<!-- Generator: Adobe Illustrator 22.1.0, SVG Export Plug-In . SVG Version: 6.00 Build 0)  -->
<svg version="1.1" id="illustration" xmlns="http://www.w3.org/2000/svg" xmlns:xlink="http://www.w3.org/1999/xlink" x="0px"
	 y="0px" viewBox="0 0 718 764" style="enable-background:new 0 0 718 764;" xml:space="preserve">
<style type="text/css">
	.st0{opacity:0.4;fill:url(#SVGID_1_);enable-background:new    ;}
	.st1{opacity:7.000000e-02;fill:url(#SVGID_2_);enable-background:new    ;}
	.st2{opacity:7.000000e-02;fill:url(#SVGID_3_);enable-background:new    ;}
	.st3{opacity:7.000000e-02;fill:url(#SVGID_4_);enable-background:new    ;}
	.st4{opacity:0.2;fill:url(#SVGID_5_);enable-background:new    ;}
	.st5{opacity:0.15;fill:url(#SVGID_6_);enable-background:new    ;}
	.st6{fill:#F2994A;}
	.st7{opacity:0.3;fill:url(#SVGID_7_);enable-background:new    ;}
	.st8{opacity:0.15;fill:#FFFFFF;enable-background:new    ;}
	.st9{opacity:0.3;fill:url(#SVGID_8_);enable-background:new    ;}
	.st10{fill:#F2C94C;}
	.st11{opacity:0.2;fill:#FFFFFF;enable-background:new    ;}
	.st12{opacity:0.2;fill:url(#SVGID_9_);enable-background:new    ;}
</style>
<linearGradient id="SVGID_1_" gradientUnits="userSpaceOnUse" x1="710.6075" y1="192.6082" x2="428.9565" y2="479.952" gradientTransform="matrix(1 0 0 1 0 -26)">
	<stop  offset="0" style="stop-color:#FFFFFF"/>
	<stop  offset="1" style="stop-color:#FFFFFF;stop-opacity:0"/>
</linearGradient>
<path class="st0" d="M607.3,232.3c38.6,22.3,69.9-3,70-56.5c0-53.5-31.3-115-69.9-137.3c-38.6-22.3-69.9,3-70,56.5
	c0,11.8,1.5,23.9,4.3,35.9L399.4,184c-12.6-24.3-29.9-44.8-48.9-55.8c-38.6-22.3-69.9,3-70,56.5c0,53.5,31.3,115,69.9,137.3
	c18.3,10.6,35,10.4,47.5,1.7l139.5,213.1c0,1.3-0.1,2.5-0.1,3.8c0,53.5,31.3,115,69.9,137.3c38.6,22.3,69.9-3,70-56.5
	c0-53.5-31.3-115-69.9-137.3c-25.4-14.6-47.6-8.7-59.9,12.2L416.3,296c2.7-8.7,4.1-18.9,4.1-30.5c0-10.6-1.2-21.4-3.5-32.2
	l143.3-53.5C572.6,202.7,589.2,221.8,607.3,232.3z"/>
<linearGradient id="SVGID_2_" gradientUnits="userSpaceOnUse" x1="681.9591" y1="95.2835" x2="400.3071" y2="382.6268" gradientTransform="matrix(1 0 0 1 0 -26)">
	<stop  offset="0" style="stop-color:#FFFFFF"/>
	<stop  offset="1" style="stop-color:#FFFFFF;stop-opacity:0"/>
</linearGradient>
<path class="st1" d="M716.9,145.4c0,53.5-31.3,78.8-70,56.5C608.3,179.6,577,118.2,577,64.6c0-53.5,31.3-78.8,70-56.5
	C685.6,30.4,716.9,91.9,716.9,145.4z"/>
<linearGradient id="SVGID_3_" gradientUnits="userSpaceOnUse" x1="424.959" y1="183.2835" x2="143.3072" y2="470.6273" gradientTransform="matrix(1 0 0 1 0 -26)">
	<stop  offset="0" style="stop-color:#FFFFFF"/>
	<stop  offset="1" style="stop-color:#FFFFFF;stop-opacity:0"/>
</linearGradient>
<path class="st2" d="M459.9,233.4c0,53.5-31.3,78.8-70,56.5c-38.6-22.3-69.9-83.8-69.9-137.3s31.3-78.8,70-56.5
	C428.6,118.4,459.9,179.9,459.9,233.4z"/>
<linearGradient id="SVGID_4_" gradientUnits="userSpaceOnUse" x1="682.9589" y1="541.2838" x2="401.3069" y2="828.6266" gradientTransform="matrix(1 0 0 1 0 -26)">
	<stop  offset="0" style="stop-color:#FFFFFF"/>
	<stop  offset="1" style="stop-color:#FFFFFF;stop-opacity:0"/>
</linearGradient>
<path class="st3" d="M717.9,591.4c0,53.5-31.3,78.8-70,56.5c-38.6-22.3-69.9-83.8-69.9-137.3s31.3-78.8,70-56.5
	C686.6,476.4,717.9,537.9,717.9,591.4z"/>
<linearGradient id="SVGID_5_" gradientUnits="userSpaceOnUse" x1="240.642" y1="472.7019" x2="219.278" y2="647.4029" gradientTransform="matrix(1 0 0 1 0 -26)">
	<stop  offset="0" style="stop-color:#FFFFFF"/>
	<stop  offset="1" style="stop-color:#FFFFFF;stop-opacity:0"/>
</linearGradient>
<path class="st4" d="M126,426l198.6,114.7l0.1,176.8L126.1,602.8L126,426z"/>
<linearGradient id="SVGID_6_" gradientUnits="userSpaceOnUse" x1="223.1098" y1="459.922" x2="231.6188" y2="647.477" gradientTransform="matrix(1 0 0 1 0 -26)">
	<stop  offset="0" style="stop-color:#FFFFFF"/>
	<stop  offset="1" style="stop-color:#FFFFFF;stop-opacity:0"/>
</linearGradient>
<path class="st5" d="M126,426l99.4,163.4l99.3-48.8L126,426z"/>
<path class="st6" d="M242.5,593.2c0,12.5-7.5,18.2-16.9,12.8c-9.3-5.4-16.9-19.9-16.9-32.3c0-12.5,7.5-18.2,16.9-12.8
	C235,566.3,242.5,580.8,242.5,593.2z"/>
<linearGradient id="SVGID_7_" gradientUnits="userSpaceOnUse" x1="262.8794" y1="302.0249" x2="112.5124" y2="421.4049" gradientTransform="matrix(1 0 0 1 0 -26)">
	<stop  offset="0" style="stop-color:#FFFFFF"/>
	<stop  offset="1" style="stop-color:#FFFFFF;stop-opacity:0"/>
</linearGradient>
<path class="st7" d="M329.5,339.7L32,168.1l0.1,151.3l271.3,156.5l26.3,38.3L329.5,339.7z"/>
<path class="st6" d="M0.3,226.7v-41.1l112.3,64.8v41.1L0.3,226.7z"/>
<path class="st8" d="M253,332.4l-65.2-37.6v13.3l65.2,37.6V332.4z"/>
<path class="st8" d="M253.1,359l-125.7-72.5v13.3l125.7,72.5V359z"/>
<path class="st8" d="M253.1,385.6l-152.3-87.8v13.3l152.3,87.8V385.6z"/>
<path class="st6" d="M269.1,355.5c0,12.5,7.6,26.9,16.9,32.3s16.9-0.4,16.9-12.8c0-12.5-7.6-26.9-16.9-32.3
	C276.6,337.3,269.1,343.1,269.1,355.5z"/>
<linearGradient id="SVGID_8_" gradientUnits="userSpaceOnUse" x1="487.4998" y1="473.1545" x2="520.124" y2="778.7656" gradientTransform="matrix(1 0 0 1 0 -26)">
	<stop  offset="0" style="stop-color:#FFFFFF"/>
	<stop  offset="1" style="stop-color:#FFFFFF;stop-opacity:0"/>
</linearGradient>
<path class="st9" d="M356.5,440.9L654,612.5l0.1,151.3L382.8,607.3l-26.2,8L356.5,440.9z"/>
<path class="st10" d="M567.5,638v-41.1l112.3,64.8v41.1L567.5,638z"/>
<path class="st8" d="M433,521.8l65.2,37.6v13.3L433,535.1V521.8z"/>
<path class="st8" d="M433,548.4l117.7,67.9v13.3L433,561.8V548.4z"/>
<path class="st8" d="M433,575.1l152.3,87.8v13.3L433,588.4V575.1z"/>
<path class="st10" d="M417,526.4c0,12.5-7.5,18.2-16.9,12.8c-9.3-5.4-16.9-19.9-16.9-32.3c0-12.5,7.5-18.2,16.9-12.8
	C409.4,499.5,416.9,514,417,526.4z"/>
<path class="st11" d="M195.2,136.6l-42.8-24.7V97.5l42.8,24.7c3.5,2,8.6,6.1,12.9,12.4c4.7,6.7,8,15.2,8,24.4
	c0,10.2-2.6,16-7.5,17.6c-4.6,1.5-10.1-1.1-13.4-3l-17.6-10.2l-0.1-0.1c-1.5-0.9-3.9-1.8-5.8-1.2c-1.6,0.5-3.3,2-3.3,7.7
	s1.8,9.1,3.2,11.2c1.8,2.6,4.2,4.4,5.7,5.2l0.2,0.1l53.8,31.1v14.4l-53.5-30.9c-3.7-1.9-9-6-13.6-12.4c-5-7.1-8.4-16-8.4-25.9
	s3.4-14.9,8.3-16.3c4.6-1.3,9.9,0.6,13.6,2.8l17.4,10.1c2.5,1.5,4.4,2.1,5.7,1.7c1-0.3,2.8-1.7,2.8-9c0-4.8-1.5-7.9-3-9.9
	C198.9,139.3,196.7,137.4,195.2,136.6z"/>
<path class="st6" d="M160.3,108.8c0,12.9-7.6,19-16.9,13.7c-9.3-5.4-16.9-20.2-16.9-33.2c0-12.9,7.6-19,16.9-13.7
	C152.7,81,160.3,95.9,160.3,108.8z"/>
<path class="st10" d="M253.3,236.8c0,12.9-7.6,19-16.9,13.7c-9.3-5.4-16.9-20.2-16.9-33.2c0-12.9,7.6-19,16.9-13.7
	C245.7,209,253.3,223.9,253.3,236.8z"/>
<linearGradient id="SVGID_9_" gradientUnits="userSpaceOnUse" x1="349.3026" y1="699.6011" x2="310.1606" y2="733.4161" gradientTransform="matrix(1 0 0 1 0 -26)">
	<stop  offset="0" style="stop-color:#FFFFFF"/>
	<stop  offset="1" style="stop-color:#FFFFFF;stop-opacity:0"/>
</linearGradient>
<path class="st12" d="M338.1,723.8c-52.9-68.1-14.6-92.6,0-52.8C352.7,648,391,716.8,338.1,723.8z"/>
</svg>
