<?xml version="1.0" encoding="UTF-8" standalone="no"?>
<!-- Created with Inkscape (http://www.inkscape.org/) -->

<svg
   width="236.72267mm"
   height="161.18048mm"
   viewBox="0 0 236.72267 161.18048"
   version="1.1"
   id="svg5"
   inkscape:version="1.1.1 (3bf5ae0d25, 2021-09-20)"
   sodipodi:docname="trawler_black.svg"
   xmlns:inkscape="http://www.inkscape.org/namespaces/inkscape"
   xmlns:sodipodi="http://sodipodi.sourceforge.net/DTD/sodipodi-0.dtd"
   xmlns="http://www.w3.org/2000/svg"
   xmlns:svg="http://www.w3.org/2000/svg">
  <sodipodi:namedview
     id="namedview7"
     pagecolor="#000000"
     bordercolor="#666666"
     borderopacity="1.0"
     inkscape:pageshadow="2"
     inkscape:pageopacity="0"
     inkscape:pagecheckerboard="false"
     inkscape:document-units="mm"
     showgrid="false"
     fit-margin-top="0"
     fit-margin-left="0"
     fit-margin-right="0"
     fit-margin-bottom="0"
     inkscape:zoom="1.158904"
     inkscape:cx="71.18795"
     inkscape:cy="368.02013"
     inkscape:window-width="3832"
     inkscape:window-height="2089"
     inkscape:window-x="0"
     inkscape:window-y="30"
     inkscape:window-maximized="1"
     inkscape:current-layer="g7643" />
  <defs
     id="defs2" />
  <g
     inkscape:label="Layer 1"
     inkscape:groupmode="layer"
     id="layer1"
     transform="translate(-7.9321184,-20.690925)">
    <g
       id="g7643">
      <path
         style="fill:#000000;stroke-width:0.264583"
         id="path177"
         d="" />
      <path
         style="fill:#000000;stroke-width:0.264583"
         id="path157"
         d="" />
      <g
         id="g9152"
         style="fill:#000000;fill-opacity:1">
        <path
           id="path633"
           style="fill:#000000;fill-opacity:1;stroke-width:0.999999"
           d="m 526.01758,0.01171875 c -1.7323,0.07730551 -3.51732,0.51074893 -4.2168,1.24609375 -0.97859,1.0287874 -0.737,1.1318803 1.23633,0.5332031 2.3297,-0.7068094 2.36652,-0.6556225 0.7168,0.9941406 -1.043,1.0428851 -1.49767,2.493524 -1.13672,3.6308594 0.38063,1.1993953 0.11911,1.9068836 -0.71485,1.9257813 -0.82397,0.019011 -0.66291,0.4112974 0.43164,1.0488281 1.60158,0.932863 1.77102,3.750404 1.97852,33.220703 l 0.22656,32.199219 0.54492,-29 0.54688,-29 0.22656,31.810547 c 0.14982,21.008271 -0.11296,31.597642 -0.77344,31.189453 -0.66474,-0.410797 -0.91919,32.511873 -0.75781,98.191403 0.26635,108.45912 0.21863,110.42976 0.75781,0.8086 l 0.51563,-98.000003 0.0527,108.500003 c 0.0295,59.675 -0.22631,104.45001 -0.56836,99.5 -1.96637,-28.46898 0.15639,7.83692 -1,13.5 h -3.13671 -3.13868 l 0.31641,-32.25 c 0.17537,-17.73748 0.23694,-34.83752 0.13867,-38 l -0.17969,-5.75 -25.75,0.0156 c -14.40514,0.009 -26.40844,0.43065 -27.24414,0.95899 -1.23552,0.781 -1.48178,3.9369 -1.42773,18.23632 l 0.0664,17.28907 -47.6875,-0.15039 c -35.95903,-0.11437 -51.34557,-0.54561 -62.57032,-1.75196 -14.62438,-1.57168 -22.98282,-2.45746 -42.88672,-4.54297 -5.5,-0.57626 -16.3,-1.74275 -24,-2.59375 -25.83968,-2.85569 -27.83546,-2.89827 -29.21484,-0.61328 -1.29747,2.14923 -2.02197,14.74952 -0.91211,15.85938 l -1.51562,123.92773 c -0.65359,-0.32761 -1.84877,-0.63672 -3.33008,-0.63672 -2.81858,0 -29.49773,-5.73488 -37.02735,-7.95898 -1.64999,-0.48741 -5.83156,-1.39233 -9.29296,-2.01172 l -6.29297,-1.125 -8.20703,6.23633 c -4.51363,3.43086 -8.65704,6.83445 -9.20704,7.5625 -0.80745,1.06892 -5.62039,0.063 -25,-5.22461 -49.64156,-13.576 -106.095475,-31.20977 -155.2656206,-45.04492 -1.97429974,9.03522 -1.3039367,31.23426 -0.71093752,40.5664 L 8.0527344,415.7793 c 0,0 300.4238556,73.61358 453.4492156,93.77929 116.73508,15.38337 352.63672,20.51563 352.63672,20.51563 l 76.59375,-68.9961 c 4.04864,-2.18497 5.25066,-3.99207 1.77344,-4.61132 -2.77308,-0.49387 -22.99464,-23.85952 -22.625,-26.14258 -19.09768,-15.50274 -2.75001,-2.98632 -18.77734,-12.51563 -27.68289,-0.27515 -41.1964,1.65387 -73.2129,1.11914 -0.44354,0.27425 -0.80664,0.0639 -0.80664,-0.46875 0,-0.56333 -3.67034,-0.90352 -8.76953,-0.81054 -7.81568,0.14215 -9.09314,-0.0943 -11.75,-2.18164 l -2.98047,-2.3418 -0.0137,0.83398 -4.41992,-29.53515 -1.06641,-11.11328 0.14258,-29.25 c 0.17375,-35.90533 0.0932,-34.20618 1.60742,-34.36719 0.6875,-0.0729 2.13417,-0.18903 3.21485,-0.25781 2.68618,-0.17088 4.57379,-3.77004 2.98242,-5.6875 -0.92716,-1.11708 -4.16181,-1.4375 -14.56836,-1.4375 h -13.37891 l -0.11718,-86.75 c -0.065,-47.71249 -0.0381,-87.34591 0.0605,-88.07422 0.0987,-0.72832 -0.36156,-1.97596 -1.02343,-2.77344 -0.66187,-0.79748 -0.91312,-1.74118 -0.5586,-2.0957 0.73622,-0.73622 -2.2144,-4.30664 -3.55859,-4.30664 -0.93574,0 -2.15442,0.92589 -6.58399,5 -1.49495,1.37499 -6.54373,5.72535 -11.21875,9.66797 -4.67501,3.94261 -9.40358,7.99264 -10.50781,9 -1.10422,1.00739 -6.05422,5.20623 -11,9.33007 -4.94574,4.12388 -9.21704,7.7253 -9.49219,8.00196 -0.64134,0.64539 -14.65889,12.83112 -17.97656,15.62695 -1.38724,1.16908 -6.12207,5.21907 -10.52148,9 -8.06291,6.92946 -9.06962,7.79016 -17.8125,15.26172 -2.64597,2.26121 -5.22439,4.11133 -5.73047,4.11133 -0.50608,0 -1.20061,1.12296 -1.54492,2.49414 -0.34417,1.37121 -1.00195,2.2604 -1.46094,1.97656 -0.45895,-0.28365 -3.01699,1.40785 -5.68359,3.75781 -2.66661,2.34992 -7.50198,6.5215 -10.7461,9.27149 -9.67483,8.20131 -20.98833,17.91202 -21.52344,18.47461 -0.27499,0.28913 -3.19998,2.76616 -6.5,5.5039 -3.29998,2.73774 -6.22485,5.2132 -6.5,5.50196 -0.27499,0.28879 -5.22499,4.55756 -11,9.48632 -5.775,4.92873 -10.72485,9.20325 -11,9.49805 -0.27499,0.29473 -2.98429,2.62 -6.02148,5.16797 -3.0002,2.51692 -9.0081,8.53134 -11.51953,11.87109 -0.2098,-23.10292 -0.37339,-74.21441 -0.40235,-132.75976 -0.0669,-135.548683 0.0209,-143.188832 1.68555,-144.1582056 0.96688,-0.5629985 1.28161,-1.0395694 0.69922,-1.0546875 -2.08989,-0.060019 -4.32367,2.5233261 -4.72851,5.4687501 -0.37739,2.747036 -0.42537,2.69149 -0.5625,-0.666016 -0.0824,-2.016642 -0.4879,-3.8553867 -0.9004,-4.0859372 -0.41249,-0.2309292 -0.18749,-0.2826675 0.5,-0.1152344 2.53165,0.617159 4.25,-0.8954974 4.25,-3.7402344 0,-1.5911433 -0.52436,-2.8925781 -1.16601,-2.8925781 -0.64161,0 -0.9106,-0.2554145 -0.59766,-0.5683594 0.70326,-0.7032567 4.76367,1.7423879 4.76367,2.8691406 0,0.4501418 -0.37368,0.585821 -0.83203,0.3027344 -0.45838,-0.2832756 -0.83398,0.1199048 -0.83398,0.8964844 0,0.7765039 0.39074,1.1713783 0.86719,0.8769531 0.47644,-0.294463 2.31264,0.3370839 4.08203,1.4023438 1.76942,1.0652592 13.79179,8.3598762 26.71679,16.2109372 12.92501,7.851065 31.14998,18.880727 40.5,24.509766 9.34999,5.629077 23.07501,13.974112 30.5,18.544922 7.425,4.570771 17.09999,10.415557 21.5,12.988281 4.40002,2.572762 15.20002,9.080175 24,14.460938 8.79999,5.380762 19.37499,11.821932 23.5,14.314452 15.40532,9.3086 15.24846,9.1869 13.95118,10.75 -1.30315,1.57021 -0.95968,1.7675 1.46289,0.83789 0.86668,-0.33267 1.32573,-1.00764 1.02148,-1.5 -0.30429,-0.49236 0.18654,-0.89648 1.08985,-0.89648 0.90313,0 1.46341,-0.53339 1.24609,-1.18555 -0.39405,-1.18216 -4.30278,-3.64883 -40.27149,-25.412109 C 658.72267,78.485324 659.38134,78.88516 652.15039,74.439453 643.8744,69.351189 591.25147,37.581503 568.58398,23.988281 557.58397,17.391796 545.10708,9.8190539 540.85742,7.1601562 c -4.24962,-2.658897 -8.29961,-4.9500645 -9,-5.0917968 -0.70034,-0.1418079 -1.57164,-0.669677 -1.93554,-1.17382815 -0.49265,-0.68211018 -2.17201,-0.96011801 -3.9043,-0.8828125 z M 725.14258,121.30859 c 0.58231,0 0.78118,0.45001 0.4414,1 -0.33989,0.55 -0.81594,1 -1.05859,1 -0.24257,0 -0.44141,-0.45 -0.44141,-1 0,-0.54999 0.47614,-1 1.0586,-1 z m -0.0586,3.00196 c 0.54996,0 1,0.42387 1,0.9414 0,0.51753 -0.45004,1.21882 -1,1.5586 -0.65419,0.40441 -1,30.84522 -1,88.06054 v 87.43946 h -97.375 -97.375 L 528.77344,299.5 c -0.0632,-0.31574 -0.12436,-4.88717 -0.1836,-10.11914 2.64408,-0.57444 9.02564,-5.8462 14.07422,-10.3457 3.25622,-2.90211 14.88554,-12.91461 25.84375,-22.25 26.6355,-22.69108 44.05654,-37.76098 49.82617,-43.10157 2.61249,-2.41825 4.75,-4.13823 4.75,-3.82226 0,0.31578 3.96731,-2.94179 8.81641,-7.23828 4.84906,-4.29653 11.25214,-9.83748 14.22852,-12.3125 2.97634,-2.47499 7.71778,-6.52502 10.53515,-9 15.18611,-13.34049 37.74591,-32.73091 46.41992,-39.89844 12.92792,-10.68257 15.23261,-13.11713 13.91797,-14.70117 -0.66104,-0.79669 -0.88914,-1.76125 -0.50586,-2.14453 0.38329,-0.38329 1.10555,-0.0357 1.60547,0.77343 1.13103,1.83058 5.98242,2.04747 5.98242,0.26758 0,-0.71304 0.45001,-1.29687 1,-1.29687 z M 263.87109,275.15234 c 2.04625,0.71537 10.68643,2.78317 24.21289,4.19336 5.22501,0.54471 16.02501,1.68771 24,2.54102 7.97503,0.85326 16.97502,1.77349 20,2.04297 3.02499,0.26955 11.35002,1.15304 18.5,1.96484 7.15,0.81181 16.14999,1.74824 20,2.08008 l 9.25196,0.37305 48.87304,-0.0391 c 26.88099,-0.0209 49.49082,-0.0289 50.24219,-0.0176 1.09002,0.0145 1.29695,2.19088 1.03125,10.76757 -0.18331,5.9125 -0.23467,25.03753 -0.11523,42.5 l 0.21679,31.75196 0.33985,10.59179 255.76367,0.4961 5.13867,65.20508 c -3.14938,0.3144 -6.36677,0.32701 -10.21094,0.72656 -10.70192,1.11231 -24.87392,2.45335 -31.49414,2.97851 -6.62018,0.52513 -17.43711,1.39267 -24.03711,1.92774 -31.58864,2.56078 -104.59619,3.89302 -135,2.46289 -19.50999,-0.91771 -45.22249,-2.6071 -59.5,-3.9082 -8.52498,-0.77689 -18.42502,-1.64144 -22,-1.92188 -7.3929,-0.57948 -21.05731,-2.26963 -31.7871,-3.93164 l -7.28907,-1.12891 -56.95703,-9 -2.23242,-0.33398 c -2.0437,-0.30595 -23.72816,-4.69284 -52.73438,-10.66797 -6.325,-1.30292 -16.22503,-3.47867 -22,-4.83594 -5.775,-1.3573 -12.84738,-3.00446 -15.71679,-3.6582 -8.89287,-0.9139 -7.5048,-14.70663 -7.72657,-23.05273 z m 15.84766,16.45118 c -4.11281,1.08888 -2.24485,17.88938 -2.34766,41.64843 2.32927,18.56852 31.51574,15.112 42.01172,16.17969 v 0.002 c 20.13562,2.30563 25.89711,2.30694 28.54883,0.008 2.10273,-1.82363 2.15234,-2.48677 2.15234,-28.3125 0,-25.23031 -3.13471,-23.06619 -5.08007,-25.1543 -19.73503,-0.9831 -58.03252,-3.89359 -65.28516,-4.37109 z m 115.05273,2.75195 c -1.12144,-0.004 -2.42157,0.0589 -4.02929,0.16211 -11.97691,0.76864 -20.1859,6.50432 -25.45899,17.79101 -1.4465,3.09615 -1.66978,10.53833 -1.93359,64.5 l -0.21875,44.78125 56.89258,6.85352 0.0371,-45.72656 c 0.0579,-71.97336 0.18967,-70.53032 -7.17969,-78.90235 -2.12712,-2.41648 -6.33792,-5.60283 -9.35742,-7.08007 -3.6315,-1.77665 -5.38762,-2.36832 -8.75196,-2.37891 z m 54.3125,9.95312 c -13.72766,0 -14.15573,0.0659 -16.61132,2.52149 -2.51278,2.51285 -2.52,2.57117 -2.30078,19.22656 0.20577,15.64365 0.35333,16.81024 2.32031,18.35742 1.15532,0.90879 2.99809,1.89831 4.0957,2.19727 1.09758,0.29896 7.47506,0.464 14.16992,0.36914 11.38659,-0.16161 12.33889,-0.32791 14.75,-2.5957 2.56615,-2.4138 2.57617,-2.49676 2.57617,-18.79688 0,-16.04836 -0.0489,-16.4181 -2.45507,-18.82422 -2.37381,-2.37407 -2.91754,-2.45508 -16.54493,-2.45508 z m 226,4.92579 v 23.5371 23.53711 h -31.51757 -31.51953 l 0.26953,-23.25 0.26757,-23.25 31.25,-0.28711 z m -68,0.0137 v 23.53125 23.53125 h -14.29882 c -9.7889,0 -14.67856,0.37969 -15.5,1.20117 -0.66002,0.65998 -1.20118,3.04381 -1.20118,5.29883 0,4.63517 1.34957,6.5 4.70118,6.5 1.63332,0 2.29882,0.57969 2.29882,2 0,1.80948 0.66669,2 7,2 6.33336,0 7,-0.19048 7,-2 0,-1.73318 0.66666,-2 5,-2 4.33331,0 5,0.26667 5,2 0,1.46664 0.66667,2 2.5,2 1.83334,0 2.5,-0.53336 2.5,-2 0,-1.95769 0.66669,-2 31.5,-2 30.83335,0 31.5,0.0423 31.5,2 0,1.46664 0.66667,2 2.5,2 1.83334,0 2.5,-0.53336 2.5,-2 0,-1.92443 0.66726,-2 17.61719,-2 17.12387,0 17.60214,0.0559 17.09375,2 -0.48824,1.86693 -0.0313,2 6.88281,2 6.73966,0 7.40625,-0.18005 7.40625,-2 0,-1.30866 0.66778,-2 1.92969,-2 2.82629,0 5.07031,-2.71655 5.07031,-6.13672 0,-4.61386 -1.65002,-6.86328 -5.03515,-6.86328 h -2.96485 v -23.5 -23.5 h 7.5 7.5 v 32 32 h -21.40625 -44.09375 -68 -19.5 -46.02734 l 0.26367,-31.75 0.26367,-31.75 31.25,-0.28125 z m 96.66797,0.10156 20.33203,0.10742 v 23.42578 23.42578 h -22 -22 v -22.89257 c 0,-20.44876 0.17854,-22.96167 1.66797,-23.53321 0.91711,-0.35206 10.81714,-0.59216 22,-0.5332 z m -170.16797,0.46094 h 5 l 0.26368,31.75 0.26367,31.75 h -21.02735 v -31.33203 c 0,-17.23337 0.21061,-31.5446 0.46875,-31.80274 0.25818,-0.25814 2.10845,-0.27895 4.11133,-0.0449 2.52624,0.29492 3.22538,0.68892 2.28125,1.28711 -0.99836,0.63235 -1.02816,0.86561 -0.11133,0.87695 0.96189,0.0118 1.27611,5.60436 1.36719,24.26563 0.0651,13.3375 0.46295,25.60001 0.88281,27.25 0.42085,1.65403 0.87169,-9.22612 1.00586,-24.25 0.13418,-14.98753 0.30036,-27.81251 0.36914,-28.5 0.0817,-0.81668 1.85836,-1.25 5.125,-1.25 z m -332.58203,73.62109 c 0.3474,0.0143 0.64639,0.10733 0.8125,0.27344 0.3323,0.33245 -0.25835,0.56885 -1.3125,0.52539 -1.16496,-0.048 -1.40321,-0.2861 -0.60547,-0.60547 0.36093,-0.14438 0.75807,-0.20767 1.10547,-0.19336 z m 403.41016,9.74414 c -10.73977,0.0353 -21.53409,0.61175 -23.83399,1.70313 -5.17982,2.45801 -5.65164,4.84433 -5.30468,26.86718 l 0.31054,19.73047 3.26563,2.91602 3.26562,2.91601 22.23438,-0.004 c 21.96132,-0.005 22.27122,-0.0353 25.23437,-2.4043 l 3,-2.39844 0.3086,-20.80273 c 0.33554,-22.58808 0.002,-24.40403 -4.97266,-26.97656 -2.08265,-1.07706 -12.76804,-1.58213 -23.50781,-1.54688 z m 84.70508,0.13086 c -2.8555,-0.0195 -6.14034,0.002 -9.91992,0.002 -12.98287,0 -21.92927,0.4156 -23.40039,1.08594 -5.09878,2.32316 -5.7129,5.10591 -5.7129,25.91406 0,20.54397 0.61637,23.48841 5.41993,25.88282 1.29275,0.64433 10.72699,0.95656 24.92773,0.82617 l 22.8457,-0.20899 2.39844,-3 c 2.35869,-2.94841 2.39598,-3.35243 2.38086,-23.5 -0.0209,-24.77143 1.04902,-26.86568 -18.93945,-27.00195 z m -663.869143,92.85547 3.982422,16.29687 c -1.951244,4.77424 -0.635101,11.18585 4.791015,19.60547 14.832945,19.68473 37.648168,33.9988 60.919922,38.21875 19.608344,3.55571 105.581984,12.08909 166.142574,16.49024 11.82501,0.85935 30.50003,2.22598 41.5,3.03711 59.3119,4.37355 164.21514,10.23495 250,13.96875 28.45954,1.2387 133.20269,7.29147 232.5,13.43554 16.22502,1.00392 30.42328,1.88686 31.55079,1.96094 4.21666,0.27662 6.12307,-4.89938 2.51562,-6.83008 -1.06386,-0.56934 -4.21385,-1.03515 -7,-1.03515 -4.51075,0 -5.06641,-0.23562 -5.06641,-2.14258 0,-2.09038 0.26303,-2.12899 10.97852,-1.62109 8.09473,0.38359 11.25109,0.1927 12.01562,-0.72852 0.40301,-0.4852 0.64159,-4.88271 0.74805,-12.13672 0,0 -241.58336,-10.32323 -361.55273,-24.39258 C 335.21624,544.56757 69.919922,493.33203 69.919922,493.33203 Z"
           transform="matrix(0.26458333,0,0,0.26458333,7.9321184,20.690925)"
           sodipodi:nodetypes="ssssscscccccsccccccccccccscccsscsccsscccsccccaccscccscsccccccsssccsssssssscssssccsssscsssccsccsccsssscssssssssssssssssssscsssssssscscccccssssssssssssscssssccccccccccssssscccccssccccccccsccccsccccsscsscssccscsccccccccccccssssssssssssssssssssssccccccccccccccccccccccsscsccccssccssscssscscssscccccsccsssscssccccscccssssscssssccacc" />
      </g>
    </g>
  </g>
</svg>
